<svg xmlns="http://www.w3.org/2000/svg" viewBox="0 0 659.38 75.25"><defs><style>.cls-1{fill:#fff;}</style></defs><g id="レイヤー_2" data-name="レイヤー 2"><g id="logo"><path class="cls-1" d="M0,4.12V2.74H9c3.34,0,6.67,0,10-.14s6.67-.15,10-.15A78.79,78.79,0,0,1,38.35,3a53.14,53.14,0,0,1,9.71,2.11,43.71,43.71,0,0,1,9.13,4.07,30.4,30.4,0,0,1,7.65,6.47A29.89,29.89,0,0,1,70.13,25a36.89,36.89,0,0,1,2,12.65,36.58,36.58,0,0,1-2,12.55,30.6,30.6,0,0,1-5.24,9.33A29.65,29.65,0,0,1,57.39,66a43.16,43.16,0,0,1-8.79,4.08,47.79,47.79,0,0,1-9,2.11,62.45,62.45,0,0,1-8.29.59c-3.73,0-7.44,0-11.13-.1S12.75,72.6,9,72.6H0V71.22H9V4.12ZM28.44,71.51A34.06,34.06,0,0,0,39.33,70a23.16,23.16,0,0,0,7.61-4.12,20.77,20.77,0,0,0,4.91-5.93,30.46,30.46,0,0,0,2.74-7,44.94,44.94,0,0,0,1.23-7.35c.19-2.46.29-4.76.29-6.92a94.82,94.82,0,0,0-1-14.37,28.25,28.25,0,0,0-3.87-11,18.79,18.79,0,0,0-8.14-7C39.61,4.65,35,3.82,29.33,3.82c-1.31,0-2.49,0-3.54.05a15.6,15.6,0,0,0-2.54.25v67.1A49.45,49.45,0,0,0,28.44,71.51Zm38.46-.29L96.13,0h2.65l30.9,71.22h8.44V72.6h-33V71.22h9.12L102.9,44.93H79.36L68.47,71.22H77.2V72.6H58.66V71.22ZM79.85,43.56h22.56L90.83,16.77Zm61.5-39.44a26,26,0,0,0-6.47.73,13.6,13.6,0,0,0-5.11,2.56,16.42,16.42,0,0,0-4,5.05,41.84,41.84,0,0,0-3.24,8.24h-1.27v-18h61.5v18h-1.27a42.47,42.47,0,0,0-3.24-8.24,16.46,16.46,0,0,0-4-5.05,13.52,13.52,0,0,0-5.09-2.56,26,26,0,0,0-6.48-.73h-3.53v67.1h9V72.6H135.86V71.22h9V4.12ZM244.46,2.74V19.52h-1.28a35.07,35.07,0,0,0-1.67-4.26,21,21,0,0,0-3.28-5.06,19.55,19.55,0,0,0-5.45-4.27,16.94,16.94,0,0,0-8.14-1.81H209V34.43h5.49a16.12,16.12,0,0,0,6.14-1,11,11,0,0,0,4.16-2.94,16,16,0,0,0,2.75-4.61,35.66,35.66,0,0,0,1.77-6h1.27V50.33h-1.27a56.8,56.8,0,0,0-1.62-5.5,16.49,16.49,0,0,0-2.5-4.66A11.56,11.56,0,0,0,221.35,37a12.57,12.57,0,0,0-5.73-1.17H209V71.22h16.09a20.94,20.94,0,0,0,8.14-1.52,20.33,20.33,0,0,0,6.43-4.28A24.39,24.39,0,0,0,244.36,59a35,35,0,0,0,2.84-7.9h1.28V72.6H185.79V71.22h9V4.12h-9V2.74Zm44.32,0h18.5L333.4,72.6h-19l-4.3-12.53H285.75l-4.4,12.53H262.66ZM290,46.58H305.8l-7.72-24.46h-.2ZM347,2.74h18.19v54.2h32.58V72.6H347Zm54.88,0h18.21V72.6H401.88Zm64,69.86H444.93l-22-69.86h19l13.7,52h.2l13.69-52h19ZM490.23,2.74h55.68V17.32H508.43V29.55h34.25V43.64H508.43v13.3h38.45V72.6H490.23Z"/><polygon class="cls-1" points="640.64 2.74 640.64 4.12 649.47 4.12 628.77 57.29 608.46 4.12 617.88 4.12 617.88 2.74 561.07 2.74 561.07 4.12 570.1 4.12 570.1 71.22 561.07 71.22 561.07 72.6 593.35 72.6 593.35 71.22 584.33 71.22 584.33 4.12 593.35 4.12 620.43 75.25 623.27 75.25 650.94 4.12 659.38 4.12 659.38 2.74 640.64 2.74"/></g></g></svg>