<svg xmlns="http://www.w3.org/2000/svg" viewBox="0 0 654.05 121.82"><defs><style>.cls-1{fill:#231815;}.cls-2{fill:#fff;}</style></defs><g id="レイヤー_2" data-name="レイヤー 2"><g id="logo"><path class="cls-1" d="M174.73,86.6v-.71h4.63c1.71,0,3.42,0,5.13-.07s3.42-.08,5.13-.08a40.47,40.47,0,0,1,4.78.3,27.88,27.88,0,0,1,5,1.09,22.32,22.32,0,0,1,4.68,2.08A15.4,15.4,0,0,1,208,92.54a15.16,15.16,0,0,1,2.71,4.78,21.2,21.2,0,0,1,0,12.93A15.43,15.43,0,0,1,208,115a15,15,0,0,1-3.85,3.31,21.88,21.88,0,0,1-4.5,2.1,24.77,24.77,0,0,1-4.63,1.08,32.86,32.86,0,0,1-4.25.3c-1.91,0-3.82,0-5.71,0s-3.8,0-5.71,0h-4.63V121h4.63V86.6Zm14.59,34.57a17.25,17.25,0,0,0,5.58-.79,11.69,11.69,0,0,0,3.91-2.11,10.51,10.51,0,0,0,2.51-3,15.48,15.48,0,0,0,1.41-3.6,22.65,22.65,0,0,0,.63-3.77c.1-1.26.15-2.44.15-3.55a48.45,48.45,0,0,0-.51-7.37,14.39,14.39,0,0,0-2-5.64,9.64,9.64,0,0,0-4.18-3.6,17,17,0,0,0-7.07-1.25l-1.81,0a8.22,8.22,0,0,0-1.31.13V121A23.9,23.9,0,0,0,189.32,121.17Zm19.73-.16,15-36.52h1.36L241.25,121h4.32v.71h-16.9V121h4.68l-5.84-13.48H215.43L209.85,121h4.48v.71h-9.51V121Zm6.64-14.18h11.57l-5.94-13.74ZM247.23,86.6a12.82,12.82,0,0,0-3.31.38,6.79,6.79,0,0,0-2.62,1.3,8.73,8.73,0,0,0-2.07,2.6,22.21,22.21,0,0,0-1.66,4.22h-.65V85.89h31.55V95.1h-.66a21.6,21.6,0,0,0-1.65-4.22,8.73,8.73,0,0,0-2.07-2.6,6.79,6.79,0,0,0-2.62-1.3,12.9,12.9,0,0,0-3.32-.38h-1.81V121H261v.71H244.42V121h4.63V86.6Zm52.89-.71V94.5h-.65a18.74,18.74,0,0,0-.86-2.19,10.84,10.84,0,0,0-1.69-2.59,9.76,9.76,0,0,0-2.79-2.19A8.62,8.62,0,0,0,290,86.6h-8v15.55h2.82a8.36,8.36,0,0,0,3.15-.53,5.66,5.66,0,0,0,2.13-1.51,7.93,7.93,0,0,0,1.41-2.37,17.62,17.62,0,0,0,.91-3.09H293V110.3h-.65a27.16,27.16,0,0,0-.83-2.82,8.67,8.67,0,0,0-1.28-2.39,5.83,5.83,0,0,0-2-1.63,6.34,6.34,0,0,0-2.94-.61H282V121h8.26a10.69,10.69,0,0,0,4.17-.77,10.37,10.37,0,0,0,3.3-2.2,12.47,12.47,0,0,0,2.39-3.29,18.06,18.06,0,0,0,1.46-4h.65v11H270V121h4.63V86.6H270v-.71Zm22.74,0h9.49l13.39,35.83H336l-2.21-6.42H321.3L319,121.72h-9.58Zm.6,22.49h8.13l-4-12.55h-.1Zm29.26-22.49h9.33v27.8h16.71v8h-26Zm28.15,0h9.34v35.83h-9.34Zm32.82,35.83H403L391.66,85.89h9.74l7,26.65h.1l7-26.65h9.73Zm12.5-35.83h28.56v7.48H435.52v6.27h17.57v7.23H435.52v6.82h19.73v8H426.19Z"/><path class="cls-1" d="M385.62,26a24.47,24.47,0,0,0,6.78-.72l8.14,6c-1.37,2.42-6.77,13.31-8,15.49a68.21,68.21,0,0,1-35.5,31,60.34,60.34,0,0,0-10-11.77c7.26-2.67,24.69-9,32.75-26.55H333.19V26ZM391,6.29V19.2H342.71V6.29Zm59.7,69.62H435V39.77c-10.57,5.73-15.57,8.31-22.43,10.89a55,55,0,0,0-10.24-13C419.67,33.64,445.48,18,457.27,2L470,11.37c.65.49.89.81.89,1.29,0,1.46-1.77,1.38-3.07,1.21-2.09,2.51-5.88,6.94-17.1,15.57ZM528.67,0a54.77,54.77,0,0,1,7.5,8.71,40.27,40.27,0,0,0-4.2,2.74l9.36,7a45.25,45.25,0,0,0-4.19,9.2c-7.1,19.52-14.44,35-43.24,49.93a142.69,142.69,0,0,0-11-12.42c9.36-2.58,20.41-10.41,25.41-15.41,4.6-4.68,11.21-14,13.63-23.8H475.67V12.18h50.09a11.93,11.93,0,0,0,2.5-.16c-4.19-5.33-4.68-6-6.29-7.5ZM542.3.16a58,58,0,0,1,7,9.2c-1.45,1-5.16,3.46-6.78,4.6a58.13,58.13,0,0,0-6.94-9.44ZM268.75,25.66c.72,0,1.61.16,1.61,1s-1.05,1.54-1.61,1.86c-.24,5.16-.49,7.66-.73,9.68a66.17,66.17,0,0,0,13-16H228.9v-14h58.32a14.56,14.56,0,0,0,5.32-.89L301.9,15c-1,1.69-5.64,9.19-6.61,10.73C286.17,40.09,281.49,45,278.59,48a43,43,0,0,0-10.73-8.71,53,53,0,0,1-23,36.7,69.92,69.92,0,0,0-12.5-9.68c8.55-5.16,21.45-13.23,21.45-36.62,0-2.18-.16-3.55-.24-4.84Zm54.05,14.6a10.57,10.57,0,1,1-10.56-10.57A10.61,10.61,0,0,1,322.8,40.26ZM0,40.49V27.1H69.62V40.49H43.8c-.32,5.41-.88,15.09-8.87,24.53-6.05,7.26-13.64,10.16-18,11.77A58.77,58.77,0,0,0,6.21,65.26C20.49,61.63,28.39,53,28.88,40.49ZM57.19,6.37V19.44H11.05V6.37Zm6.38,3.79a73.35,73.35,0,0,1,7.82,8.47,77.26,77.26,0,0,0-5.48,5.81,69,69,0,0,0-8-8.87ZM67.68.08a64.19,64.19,0,0,1,7.83,8.39A36.89,36.89,0,0,0,70.34,14a80.05,80.05,0,0,0-8.06-8.47Zm76.86,33V47.59H74.36V33.07ZM169.92,24c9.2,4.28,21.94,11.54,29.2,18.24-2.18,3.14-6.61,10-8.55,13-8.63-8.38-20.89-15.08-24.76-16.94V76.15H150.24v-72l15.32.48c1.06,0,1.86,0,1.86,1,0,.81-1,1.38-1.61,1.7V30.49Z"/><path class="cls-1" d="M227,40.26a10.57,10.57,0,1,1-10.57-10.57A10.61,10.61,0,0,1,227,40.26Z"/><path class="cls-2" d="M15.68,8.68a2.85,2.85,0,0,1,2,.68,2.71,2.71,0,0,1,.72,2.07,4.53,4.53,0,0,1-.16,1.28,2.4,2.4,0,0,1-.5.95,2.18,2.18,0,0,1-.86.58,3.36,3.36,0,0,1-1.24.2h-2V8.68Zm.06,5.12.32,0a2.22,2.22,0,0,0,.41-.1,1.94,1.94,0,0,0,.43-.22,1.36,1.36,0,0,0,.39-.4,2.39,2.39,0,0,0,.28-.62,3.43,3.43,0,0,0,.11-.91,3.68,3.68,0,0,0-.11-.92,1.62,1.62,0,0,0-.33-.7,1.44,1.44,0,0,0-.59-.43,2.33,2.33,0,0,0-.89-.15h-1.3V13.8Z"/><path class="cls-2" d="M21.79,8.68,24,14.44h-.85l-.62-1.73H20.13l-.65,1.73H18.7l2.24-5.76Zm.53,3.38-1-2.68h0l-1,2.68Z"/><path class="cls-2" d="M23.91,9.33V8.68h4.61v.65H26.6v5.11h-.77V9.33Z"/><path class="cls-2" d="M33.13,8.68v.65H29.92v1.83h3v.64h-3v2h3.24v.64h-4V8.68Z"/><path class="cls-2" d="M234.64,10.62l2.25,5.76H236l-.63-1.73H233l-.64,1.73h-.79l2.25-5.76Zm.53,3.39-1-2.69h0l-1,2.69Z"/><path class="cls-2" d="M346.12,8.6v5.12h3.05v.64h-3.82V8.6Z"/><path class="cls-2" d="M350.64,8.6v5.76h-.77V8.6Z"/><path class="cls-2" d="M353.32,14.36l-2-5.76h.82l1.65,5h0l1.67-5h.8l-2.06,5.76Z"/><path class="cls-2" d="M360.83,8.6v.65h-3.2v1.83h3v.64h-3v2h3.23v.64h-4V8.6Z"/><polygon class="cls-1" points="635.31 6.29 635.31 7.67 644.14 7.67 623.43 60.84 603.13 7.67 612.54 7.67 612.54 6.29 555.74 6.29 555.74 7.67 564.76 7.67 564.76 74.77 555.74 74.77 555.74 76.15 588.01 76.15 588.01 74.77 578.99 74.77 578.99 7.67 588.01 7.67 615.09 78.8 617.94 78.8 645.61 7.67 654.05 7.67 654.05 6.29 635.31 6.29"/></g></g></svg>